<?xml version="1.0" encoding="UTF-8" standalone="no"?>
<svg
   sodipodi:docname="default.svg"
   inkscape:version="1.3 (0e150ed, 2023-07-21)"
   version="1.1"
   id="svg2"
   viewBox="0 0 509.91072 347.26596"
   height="3.8585107in"
   width="5.6656747in"
   xml:space="preserve"
   xmlns:inkscape="http://www.inkscape.org/namespaces/inkscape"
   xmlns:sodipodi="http://sodipodi.sourceforge.net/DTD/sodipodi-0.dtd"
   xmlns="http://www.w3.org/2000/svg"
   xmlns:svg="http://www.w3.org/2000/svg"
   xmlns:rdf="http://www.w3.org/1999/02/22-rdf-syntax-ns#"
   xmlns:cc="http://creativecommons.org/ns#"
   xmlns:dc="http://purl.org/dc/elements/1.1/"><defs
     id="defs4" /><sodipodi:namedview
     inkscape:document-rotation="0"
     inkscape:pagecheckerboard="true"
     units="in"
     inkscape:snap-page="false"
     inkscape:snap-text-baseline="true"
     inkscape:snap-center="true"
     inkscape:snap-object-midpoints="true"
     inkscape:window-maximized="1"
     inkscape:window-y="-11"
     inkscape:window-x="-11"
     inkscape:window-height="1906"
     inkscape:window-width="3000"
     inkscape:snap-global="false"
     inkscape:snap-midpoints="true"
     inkscape:snap-smooth-nodes="true"
     inkscape:object-nodes="true"
     inkscape:snap-intersection-paths="true"
     inkscape:object-paths="true"
     inkscape:snap-bbox-midpoints="true"
     inkscape:snap-bbox-edge-midpoints="true"
     inkscape:bbox-nodes="true"
     inkscape:bbox-paths="true"
     inkscape:snap-bbox="true"
     showgrid="false"
     inkscape:current-layer="layer1"
     inkscape:document-units="in"
     inkscape:cy="1011.757"
     inkscape:cx="1339.3918"
     inkscape:zoom="1"
     inkscape:pageshadow="2"
     inkscape:pageopacity="0"
     borderopacity="1.0"
     bordercolor="#666666"
     pagecolor="#ffffff"
     id="base"
     inkscape:showpageshadow="2"
     inkscape:deskcolor="#d1d1d1" /><metadata
     id="metadata7"><rdf:RDF><cc:Work
         rdf:about=""><dc:format>image/svg+xml</dc:format><dc:type
           rdf:resource="http://purl.org/dc/dcmitype/StillImage" /><dc:title /></cc:Work></rdf:RDF></metadata><g
     transform="translate(-985.13583,-405.78739)"
     id="layer1"
     inkscape:groupmode="layer"
     inkscape:label="Layer 1"><path
       style="fill:#ffffff"
       d="m 1294.0324,752.73993 c -7.2187,-0.16131 -32.3203,-0.93357 -55.7812,-1.71615 -23.461,-0.78257 -47.3723,-1.42165 -53.1362,-1.42017 -8.2798,0.002 -10.7892,-0.3066 -11.9531,-1.47053 -0.8103,-0.81027 -1.4732,-1.99152 -1.4732,-2.625 0,-3.22855 1.835,-3.40178 36.0468,-3.40275 18.5883,-5.3e-4 56.2618,-0.28048 83.7188,-0.6221 l 49.9219,-0.62115 9e-4,-123.36227 9e-4,-123.36227 -38.6728,0.59729 c -44.7776,0.69158 -57.7499,1.70735 -117.8915,9.23121 -32.9489,4.12199 -40.3649,4.86967 -45,4.53689 -3.98,-0.28574 -4.2188,-0.4597 -4.2188,-3.07341 v -2.77053 l 41.25,-6.80335 c 77.6676,-12.80969 80.0194,-12.99059 167.3438,-12.87185 38.9296,0.0529 82.5486,0.47481 96.9311,0.9375 23.332,0.7506 26.2611,1.01804 27.1827,2.48188 0.751,1.19294 0.7516,2.08831 0,3.28125 -0.7981,1.27059 -2.4886,1.68149 -7.4952,1.8218 -3.5555,0.0996 -22.9177,0.63806 -43.0271,1.19645 -20.1094,0.5584 -41.3086,1.25677 -47.1094,1.55193 l -10.5468,0.53666 v 123.18877 123.18876 l 15.7031,-0.002 c 8.6367,-8.7e-4 38.4603,0.20107 66.2746,0.44876 43.8829,0.3908 50.7625,0.64132 52.0154,1.89419 1.0999,1.09993 1.2008,1.83042 0.4233,3.06687 -0.8268,1.315 -3.0478,1.7444 -11.7028,2.26254 -5.8753,0.35173 -21.8621,1.35904 -35.5261,2.23847 -23.6443,1.52177 -115.1527,2.51392 -153.2813,1.66191 z M 1071.3762,666.4747 c -37.056,-1.16231 -84.9904,-3.41633 -85.62629,-4.02642 -0.43037,-0.4129 -0.64131,-1.74861 -0.46875,-2.96824 0.31159,-2.20227 0.42,-2.22144 15.78254,-2.79093 8.5078,-0.31538 28.5468,-0.63432 44.5312,-0.70874 15.9844,-0.0744 32.543,-0.40625 36.7969,-0.7374 l 7.7344,-0.60208 V 535.86264 417.0844 l -22.7344,-0.70359 c -68.55375,-2.12163 -80.60767,-2.78693 -81.69184,-4.50889 -0.75234,-1.19493 -0.75219,-2.08633 5.4e-4,-3.28125 0.94718,-1.5036 4.50961,-1.70235 42.6515,-2.37962 22.8898,-0.40644 61.0242,-0.54489 84.7429,-0.30766 43.4947,0.43503 47.3356,0.65646 98.9063,5.70204 22.0637,2.15868 64.2474,5.17977 72.3888,5.18432 6.2708,0.004 7.3661,0.25339 8.2362,1.87904 0.7129,1.33218 0.7129,2.41783 0,3.75 -1.1729,2.19157 1.6707,2.12599 -40.7813,0.94056 -16.5,-0.46074 -43.2891,-1.75961 -59.5312,-2.88637 -25.3769,-1.76046 -81.6449,-3.74513 -83.628,-2.94971 -0.3626,0.14543 -0.5735,53.72438 -0.4688,119.06434 l 0.1905,118.79993 82.9688,0.26793 c 45.6328,0.14736 85.7109,0.56923 89.0625,0.9375 5.997,0.65895 6.0937,0.71421 6.0937,3.48207 v 2.8125 l -29.5312,1.08095 c -77.8401,2.84921 -145.546,3.76333 -185.625,2.50621 z m 78.2812,-32.23608 c -6.1101,-1.7892 -6.086,-1.86642 10.3777,-33.22126 8.3915,-15.98151 15.0612,-29.25347 14.8214,-29.49324 -0.2398,-0.23977 -9.3379,-0.87484 -20.2179,-1.41126 -17.1645,-0.84626 -19.9186,-1.19241 -20.8143,-2.61594 -0.7511,-1.19376 -0.7513,-2.0875 -6e-4,-3.28125 0.8958,-1.42434 3.2434,-1.7179 17.8078,-2.22674 9.2267,-0.32237 19.5971,-0.63877 23.0452,-0.70313 l 6.2694,-0.11701 6.785,-12.42187 c 19.1016,-34.97052 26.0762,-41.95515 40.7209,-40.77961 8.04,0.64538 14.5305,4.81091 20.3834,13.08179 4.3312,6.12065 15.4467,25.42347 19.9276,34.6059 l 2.5704,5.26746 21.662,0.68096 c 12.9606,0.40742 22.1518,1.08369 22.8813,1.68354 0.6706,0.55143 1.0925,2.09339 0.9375,3.42659 -0.2719,2.33898 -0.5613,2.44539 -8.2505,3.03407 -4.3829,0.33554 -11.7657,0.67626 -16.4063,0.75715 -4.6406,0.0809 -10.0231,0.43917 -11.9612,0.79618 l -3.5237,0.64909 14.0706,28.08596 c 7.7388,15.44727 14.0706,28.8418 14.0706,29.76562 0,2.88975 -3.4246,5.42967 -7.3209,5.42967 -1.9639,0 -4.2223,-0.52734 -5.0186,-1.17187 -1.4568,-1.17918 -4.7381,-7.15931 -18.1327,-33.04688 -4.0019,-7.73437 -9.1408,-17.54297 -11.4199,-21.79687 l -4.1436,-7.73438 -32.9978,0.013 -32.9978,0.013 -13.0617,24.12767 c -17.476,32.28175 -20.1953,37.04834 -21.921,38.42455 -1.6628,1.32614 -4.0463,1.3786 -8.1423,0.1792 z m 103.5938,-73.69417 c 0,-0.8349 -12.7818,-25.09915 -15.7213,-29.84441 -7.6212,-12.3032 -13.5831,-12.51648 -21.1844,-0.75785 -4.9461,7.65124 -17.4679,29.53077 -17.4687,30.52348 -4e-4,0.38672 12.2337,0.70312 27.1869,0.70312 14.9531,0 27.1875,-0.28095 27.1875,-0.62434 z"
       id="path14" /></g></svg>
